solid Onshape
  facet normal -1 0 0
    outer loop
      vertex -0.0134 0.1675 0
      vertex -0.0134 -0.0134 0
      vertex -0.0134 0.1675 0.134
    endloop
  endfacet
  facet normal -1 0 0
    outer loop
      vertex -0.0134 -0.0134 0
      vertex -0.0134 -0.0134 0.1675
      vertex -0.0134 0.1675 0.134
    endloop
  endfacet
  facet normal -1 0 0
    outer loop
      vertex -0.0134 0.1675 0.134
      vertex -0.0134 -0.0134 0.1675
      vertex -0.0134 0.2345 0.134
    endloop
  endfacet
  facet normal -1 0 0
    outer loop
      vertex -0.0134 -0.0134 0.1675
      vertex -0.0134 0.4154 0.1675
      vertex -0.0134 0.2345 0.134
    endloop
  endfacet
  facet normal -1 0 0
    outer loop
      vertex -0.0134 0.2345 0.134
      vertex -0.0134 0.4154 0.1675
      vertex -0.0134 0.2345 0
    endloop
  endfacet
  facet normal -1 0 0
    outer loop
      vertex -0.0134 0.4154 0.1675
      vertex -0.0134 0.4154 0
      vertex -0.0134 0.2345 0
    endloop
  endfacet
  facet normal 0 0 -1
    outer loop
      vertex -0.0134 -0.0134 0
      vertex -0.0134 0.1675 0
      vertex -5.11623e-17 0.1675 0
    endloop
  endfacet
  facet normal 0 0 -1
    outer loop
      vertex 0.6834 -0.0134 0
      vertex -0.0134 -0.0134 0
      vertex 0 0 0
    endloop
  endfacet
  facet normal 0 0 -1
    outer loop
      vertex -0.0134 -0.0134 0
      vertex -5.11623e-17 0.1675 0
      vertex 0 0 0
    endloop
  endfacet
  facet normal 0 -1 0
    outer loop
      vertex -0.0134 -0.0134 0
      vertex 0.6834 -0.0134 0
      vertex -0.0134 -0.0134 0.1675
    endloop
  endfacet
  facet normal 0 -1 0
    outer loop
      vertex 0.6834 -0.0134 0
      vertex 0.6834 -0.0134 0.1675
      vertex -0.0134 -0.0134 0.1675
    endloop
  endfacet
  facet normal 0 0 1
    outer loop
      vertex -0.0134 -0.0134 0.1675
      vertex 0.6834 -0.0134 0.1675
      vertex 0.67 0 0.1675
    endloop
  endfacet
  facet normal 0 0 1
    outer loop
      vertex 0.6834 -0.0134 0.1675
      vertex 0.67 0.402 0.1675
      vertex 0.67 0 0.1675
    endloop
  endfacet
  facet normal 0 0 1
    outer loop
      vertex -0.0134 0.4154 0.1675
      vertex -0.0134 -0.0134 0.1675
      vertex 0 0 0.1675
    endloop
  endfacet
  facet normal 0 0 1
    outer loop
      vertex -0.0134 -0.0134 0.1675
      vertex 0.67 0 0.1675
      vertex 0 0 0.1675
    endloop
  endfacet
  facet normal 0 0 -1
    outer loop
      vertex -0.0134 0.1675 0.134
      vertex -0.0134 0.2345 0.134
      vertex -5.71834e-17 0.2345 0.134
    endloop
  endfacet
  facet normal 0 0 -1
    outer loop
      vertex -5.11623e-17 0.1675 0.134
      vertex -0.0134 0.1675 0.134
      vertex -5.71834e-17 0.2345 0.134
    endloop
  endfacet
  facet normal 0 1 0
    outer loop
      vertex -0.0134 0.1675 0.134
      vertex -5.11623e-17 0.1675 0.134
      vertex -5.11623e-17 0.1675 0
    endloop
  endfacet
  facet normal 0 1 0
    outer loop
      vertex -0.0134 0.1675 0
      vertex -0.0134 0.1675 0.134
      vertex -5.11623e-17 0.1675 0
    endloop
  endfacet
  facet normal 0 0 -1
    outer loop
      vertex 0.6834 0.1675 0
      vertex 0.6834 -0.0134 0
      vertex 0.67 0 0
    endloop
  endfacet
  facet normal 0 0 -1
    outer loop
      vertex 0.6834 -0.0134 0
      vertex 0 0 0
      vertex 0.67 0 0
    endloop
  endfacet
  facet normal 1 0 0
    outer loop
      vertex 0.6834 -0.0134 0
      vertex 0.6834 0.1675 0
      vertex 0.6834 -0.0134 0.1675
    endloop
  endfacet
  facet normal 1 0 0
    outer loop
      vertex 0.6834 0.1675 0
      vertex 0.6834 0.1675 0.134
      vertex 0.6834 -0.0134 0.1675
    endloop
  endfacet
  facet normal 1 0 0
    outer loop
      vertex 0.6834 -0.0134 0.1675
      vertex 0.6834 0.1675 0.134
      vertex 0.6834 0.4154 0.1675
    endloop
  endfacet
  facet normal 1 0 0
    outer loop
      vertex 0.6834 0.1675 0.134
      vertex 0.6834 0.2345 0.134
      vertex 0.6834 0.4154 0.1675
    endloop
  endfacet
  facet normal 1 0 0
    outer loop
      vertex 0.6834 0.4154 0.1675
      vertex 0.6834 0.2345 0.134
      vertex 0.6834 0.4154 0
    endloop
  endfacet
  facet normal 1 0 0
    outer loop
      vertex 0.6834 0.2345 0.134
      vertex 0.6834 0.2345 0
      vertex 0.6834 0.4154 0
    endloop
  endfacet
  facet normal 1 3.05446e-16 0
    outer loop
      vertex -5.11623e-17 0.1675 0
      vertex -5.11623e-17 0.1675 0.134
      vertex 0 0 0.1675
    endloop
  endfacet
  facet normal 1 1.82725e-16 -6.13607e-16
    outer loop
      vertex -5.11623e-17 0.1675 0.134
      vertex -7.34555e-17 0.402 0.1675
      vertex 0 0 0.1675
    endloop
  endfacet
  facet normal 1 3.05446e-16 0
    outer loop
      vertex 0 0 0
      vertex -5.11623e-17 0.1675 0
      vertex 0 0 0.1675
    endloop
  endfacet
  facet normal 0 1 0
    outer loop
      vertex 0 0 0
      vertex 0 0 0.1675
      vertex 0.67 0 0.1675
    endloop
  endfacet
  facet normal 0 1 0
    outer loop
      vertex 0.67 0 0
      vertex 0 0 0
      vertex 0.67 0 0.1675
    endloop
  endfacet
  facet normal 0 -1 0
    outer loop
      vertex -0.0134 0.2345 0.134
      vertex -0.0134 0.2345 0
      vertex -6.347e-17 0.2345 0
    endloop
  endfacet
  facet normal 0 -1 0
    outer loop
      vertex -5.71834e-17 0.2345 0.134
      vertex -0.0134 0.2345 0.134
      vertex -6.347e-17 0.2345 0
    endloop
  endfacet
  facet normal 0 0 1
    outer loop
      vertex 0.6834 0.4154 0.1675
      vertex -0.0134 0.4154 0.1675
      vertex -7.34555e-17 0.402 0.1675
    endloop
  endfacet
  facet normal 0 0 1
    outer loop
      vertex -0.0134 0.4154 0.1675
      vertex 0 0 0.1675
      vertex -7.34555e-17 0.402 0.1675
    endloop
  endfacet
  facet normal 0 1 0
    outer loop
      vertex -0.0134 0.4154 0.1675
      vertex 0.6834 0.4154 0.1675
      vertex -0.0134 0.4154 0
    endloop
  endfacet
  facet normal 0 1 0
    outer loop
      vertex 0.6834 0.4154 0.1675
      vertex 0.6834 0.4154 0
      vertex -0.0134 0.4154 0
    endloop
  endfacet
  facet normal -1 0 0
    outer loop
      vertex 0.67 0 0.1675
      vertex 0.67 0.402 0.1675
      vertex 0.67 0.2345 0.134
    endloop
  endfacet
  facet normal -1 0 0
    outer loop
      vertex 0.67 0.402 0.1675
      vertex 0.67 0.2345 0
      vertex 0.67 0.2345 0.134
    endloop
  endfacet
  facet normal -1 0 0
    outer loop
      vertex 0.67 0 0
      vertex 0.67 0 0.1675
      vertex 0.67 0.1675 0.134
    endloop
  endfacet
  facet normal -1 0 0
    outer loop
      vertex 0.67 0 0.1675
      vertex 0.67 0.2345 0.134
      vertex 0.67 0.1675 0.134
    endloop
  endfacet
  facet normal 0 0 1
    outer loop
      vertex 0.6834 -0.0134 0.1675
      vertex 0.6834 0.4154 0.1675
      vertex 0.67 0.402 0.1675
    endloop
  endfacet
  facet normal 0 0 1
    outer loop
      vertex 0.6834 0.4154 0.1675
      vertex -7.34555e-17 0.402 0.1675
      vertex 0.67 0.402 0.1675
    endloop
  endfacet
  facet normal 1 3.31619e-16 -4.69145e-17
    outer loop
      vertex -5.71834e-17 0.2345 0.134
      vertex -6.347e-17 0.2345 0
      vertex -1.19016e-16 0.402 0
    endloop
  endfacet
  facet normal 1 8.9868e-17 3.63923e-17
    outer loop
      vertex -5.11623e-17 0.1675 0.134
      vertex -5.71834e-17 0.2345 0.134
      vertex -7.34555e-17 0.402 0.1675
    endloop
  endfacet
  facet normal 1 1.51547e-16 -2.72004e-16
    outer loop
      vertex -5.71834e-17 0.2345 0.134
      vertex -1.19016e-16 0.402 0
      vertex -7.34555e-17 0.402 0.1675
    endloop
  endfacet
  facet normal 0 0 -1
    outer loop
      vertex -0.0134 0.2345 0
      vertex -0.0134 0.4154 0
      vertex -1.19016e-16 0.402 0
    endloop
  endfacet
  facet normal 0 0 -1
    outer loop
      vertex -0.0134 0.4154 0
      vertex 0.67 0.402 0
      vertex -1.19016e-16 0.402 0
    endloop
  endfacet
  facet normal 0 0 -1
    outer loop
      vertex -6.347e-17 0.2345 0
      vertex -0.0134 0.2345 0
      vertex -1.19016e-16 0.402 0
    endloop
  endfacet
  facet normal 0 0 -1
    outer loop
      vertex -0.0134 0.4154 0
      vertex 0.6834 0.4154 0
      vertex 0.67 0.402 0
    endloop
  endfacet
  facet normal 0 0 -1
    outer loop
      vertex 0.6834 0.4154 0
      vertex 0.67 0.2345 0
      vertex 0.67 0.402 0
    endloop
  endfacet
  facet normal 0 -1 0
    outer loop
      vertex -1.19016e-16 0.402 0
      vertex 0.67 0.402 0
      vertex -7.34555e-17 0.402 0.1675
    endloop
  endfacet
  facet normal 0 -1 0
    outer loop
      vertex 0.67 0.402 0
      vertex 0.67 0.402 0.1675
      vertex -7.34555e-17 0.402 0.1675
    endloop
  endfacet
  facet normal -1 0 0
    outer loop
      vertex 0.67 0.402 0
      vertex 0.67 0.2345 0
      vertex 0.67 0.402 0.1675
    endloop
  endfacet
  facet normal 0 0 -1
    outer loop
      vertex 0.6834 0.4154 0
      vertex 0.6834 0.2345 0
      vertex 0.67 0.2345 0
    endloop
  endfacet
  facet normal -1 0 0
    outer loop
      vertex 0.67 0.1675 0
      vertex 0.67 0 0
      vertex 0.67 0.1675 0.134
    endloop
  endfacet
  facet normal 0 0 -1
    outer loop
      vertex 0.67 0 0
      vertex 0.67 0.1675 0
      vertex 0.6834 0.1675 0
    endloop
  endfacet
  facet normal 0 0 -1
    outer loop
      vertex 0.67 0.1675 0.134
      vertex 0.67 0.2345 0.134
      vertex 0.6834 0.1675 0.134
    endloop
  endfacet
  facet normal 0 0 -1
    outer loop
      vertex 0.67 0.2345 0.134
      vertex 0.6834 0.2345 0.134
      vertex 0.6834 0.1675 0.134
    endloop
  endfacet
  facet normal 0 1 0
    outer loop
      vertex 0.67 0.1675 0.134
      vertex 0.6834 0.1675 0.134
      vertex 0.6834 0.1675 0
    endloop
  endfacet
  facet normal 0 1 0
    outer loop
      vertex 0.67 0.1675 0
      vertex 0.67 0.1675 0.134
      vertex 0.6834 0.1675 0
    endloop
  endfacet
  facet normal 0 -1 0
    outer loop
      vertex 0.67 0.2345 0.134
      vertex 0.67 0.2345 0
      vertex 0.6834 0.2345 0
    endloop
  endfacet
  facet normal 0 -1 0
    outer loop
      vertex 0.6834 0.2345 0.134
      vertex 0.67 0.2345 0.134
      vertex 0.6834 0.2345 0
    endloop
  endfacet
endsolid Onshape
