solid Onshape
  facet normal -1 0 0
    outer loop
      vertex -0.0134 0.1675 0
      vertex -0.0134 0.1675 0.134
      vertex -0.0134 0.2345 0.134
    endloop
  endfacet
  facet normal 0 -1 0
    outer loop
      vertex -0.0134 0.1675 0.134
      vertex -0.0134 0.1675 0
      vertex 0.0067 0.1675 0
    endloop
  endfacet
  facet normal 0 -1 0
    outer loop
      vertex 0.0067 0.1675 0.134
      vertex -0.0134 0.1675 0.134
      vertex 0.0067 0.1675 0
    endloop
  endfacet
  facet normal 0 0 1
    outer loop
      vertex -0.0134 0.1675 0.134
      vertex 0.0067 0.1675 0.134
      vertex -0.0134 0.2345 0.134
    endloop
  endfacet
  facet normal 0 0 1
    outer loop
      vertex 0.0067 0.1675 0.134
      vertex 0.0067 0.2345 0.134
      vertex -0.0134 0.2345 0.134
    endloop
  endfacet
  facet normal 0 1 0
    outer loop
      vertex -0.0134 0.2345 0.134
      vertex 0.0067 0.2345 0.134
      vertex -0.0134 0.2345 0
    endloop
  endfacet
  facet normal 0 1 0
    outer loop
      vertex 0.0067 0.2345 0.134
      vertex 0.0067 0.2345 0
      vertex -0.0134 0.2345 0
    endloop
  endfacet
  facet normal -1 0 0
    outer loop
      vertex -0.0134 0.2345 0.134
      vertex -0.0134 0.2345 0
      vertex -0.0134 0.1675 0
    endloop
  endfacet
  facet normal 0 0 -1
    outer loop
      vertex -0.0134 0.1675 0
      vertex -0.0134 0.2345 0
      vertex 0.0067 0.2345 0
    endloop
  endfacet
  facet normal 0 0 -1
    outer loop
      vertex 0.0067 0.1675 0
      vertex -0.0134 0.1675 0
      vertex 0.0067 0.2345 0
    endloop
  endfacet
  facet normal 1 0 0
    outer loop
      vertex 0.0067 0.1675 0
      vertex 0.0067 0.2345 0
      vertex 0.0067 0.1675 0.134
    endloop
  endfacet
  facet normal 1 0 0
    outer loop
      vertex 0.0067 0.2345 0
      vertex 0.0067 0.2345 0.134
      vertex 0.0067 0.1675 0.134
    endloop
  endfacet
endsolid Onshape
